<svg xmlns="http://www.w3.org/2000/svg" height="601pt" version="1.1" viewBox="0 -5 601.96347 601" width="601pt">
<g id="surface1">
<path d="M 438.628906 214.695312 C 438.628906 287.933594 379.257812 347.304688 306.019531 347.304688 C 232.78125 347.304688 173.410156 287.933594 173.410156 214.695312 C 173.410156 141.457031 232.78125 82.085938 306.019531 82.085938 C 379.257812 82.085938 438.628906 141.457031 438.628906 214.695312 Z M 438.628906 214.695312 " style=" stroke:none;fill-rule:nonzero;fill:rgb(99.215686%,71.372549%,18.431373%);fill-opacity:1;" />
<path d="M 397.824219 214.695312 C 397.824219 265.398438 356.722656 306.5 306.019531 306.5 C 255.316406 306.5 214.214844 265.398438 214.214844 214.695312 C 214.214844 163.992188 255.316406 122.890625 306.019531 122.890625 C 356.722656 122.890625 397.824219 163.992188 397.824219 214.695312 Z M 397.824219 214.695312 " style=" stroke:none;fill-rule:nonzero;fill:rgb(100%,63.529412%,18.823529%);fill-opacity:1;" />
<path d="M 547.773438 423.898438 L 408.023438 490.113281 L 382.523438 490.113281 C 402.242188 490.113281 418.226562 474.128906 418.226562 454.410156 C 418.226562 434.691406 402.242188 418.707031 382.523438 418.707031 L 255.015625 418.707031 C 212.742188 376.445312 147.582031 367.316406 95.335938 396.347656 L 91.804688 398.304688 L 91.804688 592.117188 L 358.703125 592.117188 C 391.011719 592.117188 422.746094 583.589844 450.703125 567.414062 L 582.957031 490.835938 C 601.09375 480.453125 607.375 457.339844 596.992188 439.203125 C 587.136719 421.992188 565.65625 415.3125 547.773438 423.898438 Z M 547.773438 423.898438 " style=" stroke:none;fill-rule:nonzero;fill:rgb(100%,71.764706%,50.980392%);fill-opacity:1;" />
<path d="M 0 398.304688 L 91.804688 398.304688 L 91.804688 592.117188 L 0 592.117188 Z M 0 398.304688 " style=" stroke:none;fill-rule:nonzero;fill:rgb(26.27451%,59.607843%,81.960784%);fill-opacity:1;" />
<path d="M 224.414062 214.695312 L 204.011719 214.695312 C 204.074219 158.386719 249.710938 112.75 306.019531 112.6875 L 306.019531 133.089844 C 260.972656 133.140625 224.464844 169.648438 224.414062 214.695312 Z M 224.414062 214.695312 " style=" stroke:none;fill-rule:nonzero;fill:rgb(99.215686%,48.235294%,18.431373%);fill-opacity:1;" />
<path d="M 306.019531 316.703125 L 306.019531 296.300781 C 351.066406 296.25 387.574219 259.742188 387.625 214.695312 L 408.023438 214.695312 C 407.964844 271.003906 362.328125 316.640625 306.019531 316.703125 Z M 306.019531 316.703125 " style=" stroke:none;fill-rule:nonzero;fill:rgb(99.215686%,48.235294%,18.431373%);fill-opacity:1;" />
<path d="M 142.808594 82.085938 C 139.320312 61.164062 122.925781 44.773438 102.007812 41.285156 C 122.925781 37.796875 139.320312 21.402344 142.808594 0.480469 C 146.296875 21.402344 162.691406 37.796875 183.609375 41.285156 C 162.691406 44.773438 146.296875 61.164062 142.808594 82.085938 Z M 142.808594 82.085938 " style=" stroke:none;fill-rule:nonzero;fill:rgb(99.215686%,71.372549%,18.431373%);fill-opacity:1;" />
<path d="M 51.003906 530.914062 C 51.003906 542.183594 41.871094 551.316406 30.601562 551.316406 C 19.335938 551.316406 10.199219 542.183594 10.199219 530.914062 C 10.199219 519.648438 19.335938 510.511719 30.601562 510.511719 C 41.871094 510.511719 51.003906 519.648438 51.003906 530.914062 Z M 51.003906 530.914062 " style=" stroke:none;fill-rule:nonzero;fill:rgb(7.058824%,37.647059%,60%);fill-opacity:1;" />
<path d="M 510.03125 337.101562 C 506.542969 316.179688 490.148438 299.789062 469.230469 296.300781 C 490.148438 292.8125 506.542969 276.417969 510.03125 255.496094 C 513.519531 276.417969 529.914062 292.8125 550.832031 296.300781 C 529.914062 299.789062 513.519531 316.179688 510.03125 337.101562 Z M 510.03125 337.101562 " style=" stroke:none;fill-rule:nonzero;fill:rgb(99.215686%,71.372549%,18.431373%);fill-opacity:1;" />
<path d="M 316.21875 204.496094 L 295.816406 204.496094 C 290.1875 204.496094 285.617188 199.925781 285.617188 194.292969 C 285.617188 188.664062 290.1875 184.09375 295.816406 184.09375 L 336.621094 184.09375 L 336.621094 163.691406 L 316.21875 163.691406 L 316.21875 153.492188 L 295.816406 153.492188 L 295.816406 163.691406 C 278.917969 163.691406 265.214844 177.390625 265.214844 194.292969 C 265.214844 211.195312 278.917969 224.894531 295.816406 224.894531 L 316.21875 224.894531 C 321.851562 224.894531 326.421875 229.464844 326.421875 235.097656 C 326.421875 240.726562 321.851562 245.296875 316.21875 245.296875 L 275.417969 245.296875 L 275.417969 265.699219 L 295.816406 265.699219 L 295.816406 275.898438 L 316.21875 275.898438 L 316.21875 265.699219 C 333.121094 265.699219 346.820312 252 346.820312 235.097656 C 346.820312 218.195312 333.121094 204.496094 316.21875 204.496094 Z M 316.21875 204.496094 " style=" stroke:none;fill-rule:nonzero;fill:rgb(99.215686%,48.235294%,18.431373%);fill-opacity:1;" />
<path d="M 382.523438 500.3125 L 255.015625 500.3125 C 249.386719 500.3125 244.816406 495.742188 244.816406 490.113281 C 244.816406 484.480469 249.386719 479.910156 255.015625 479.910156 L 382.523438 479.910156 C 388.152344 479.910156 392.722656 484.480469 392.722656 490.113281 C 392.722656 495.742188 388.152344 500.3125 382.523438 500.3125 Z M 382.523438 500.3125 " style=" stroke:none;fill-rule:nonzero;fill:rgb(94.901961%,64.313725%,43.529412%);fill-opacity:1;" />
</g>
</svg>