<svg height="472pt" viewBox="-72 0 472 472" width="472pt" xmlns="http://www.w3.org/2000/svg"><path d="m0 432c0 17.671875 14.328125 32 32 32h208c17.671875 0 32-14.328125 32-32v-32h-272zm0 0" fill="#e0e0de"/><path d="m240 0h-208c-17.671875 0-32 14.328125-32 32v16h272v-16c0-17.671875-14.328125-32-32-32zm0 0" fill="#e0e0de"/><path d="m0 48h272v352h-272zm0 0" fill="#348fd9"/><path d="m128 424h16v16h-16zm0 0" fill="#b0b0ae"/><path d="m0 368v32h272v-304zm0 0" fill="#3086cd"/><path d="m160 144 24-48h-96l24 48c-35.347656 0-64 28.652344-64 64v104l-11.03125 11.03125c-3.183594 3.183594-4.96875 7.5-4.96875 12 .003906 9.371094 7.597656 16.964844 16.96875 16.96875h174.0625c9.371094-.003906 16.964844-7.597656 16.96875-16.96875 0-4.5-1.785156-8.816406-4.96875-12l-11.03125-11.03125v-104c0-35.347656-28.652344-64-64-64zm0 0" fill="#ffb531"/><path d="m235.03125 323.03125-11.03125-11.03125v-104c.011719-21.636719-10.925781-41.804688-29.0625-53.601562-22.839844 79.394531-71.46875 148.917968-138.210938 197.601562h166.304688c6.863281 0 13.054688-4.132812 15.679688-10.472656 2.628906-6.34375 1.175781-13.640625-3.679688-18.496094zm0 0" fill="#ffa912"/><path d="m148 240h-24c-6.628906 0-12-5.371094-12-12s5.371094-12 12-12h44v-16h-24v-16h-16v16h-4c-15.464844 0-28 12.535156-28 28s12.535156 28 28 28h24c6.628906 0 12 5.371094 12 12s-5.371094 12-12 12h-44v16h24v16h16v-16h4c15.464844 0 28-12.535156 28-28s-12.535156-28-28-28zm0 0" fill="#f98500"/><path d="m308.207031 259.679688-36.207031-43.679688v104l-68-68c-11.097656-10.742188-28.757812-10.597656-39.679688.320312-10.917968 10.921876-11.0625 28.582032-.320312 39.679688l68 68-6.585938 11.527344c-15.339843 26.84375-12.726562 60.332031 6.585938 84.472656v16h96v-159.648438c0-19.375-7.035156-38.089843-19.792969-52.671874zm0 0" fill="#fec9a3"/></svg>